<svg aria-hidden="true" style="width:0;height:0;position:absolute;overflow:hidden" xmlns="http://www.w3.org/2000/svg"><defs><symbol id="icon-menu" viewBox="0 0 32 33"><path d="M28 13.833H4M28 8.5H4M28 19.167H4M28 24.5H4" stroke-width="2" stroke-linecap="round" stroke-linejoin="round"/></symbol><symbol id="icon-x" viewBox="0 0 32 32"><path stroke-linejoin="round" stroke-linecap="round" stroke-width="2.667" d="M24 8 8 24M8 8l16 16"/></symbol><symbol id="icon-cart" viewBox="0 0 24 24"><path d="M11 21c0-.552-.225-1.053-.586-1.414a1.996 1.996 0 0 0-2.828 0 1.996 1.996 0 0 0 0 2.828 1.996 1.996 0 0 0 2.828 0c.361-.361.586-.862.586-1.414zm11 0c0-.552-.225-1.053-.586-1.414a1.996 1.996 0 0 0-2.828 0 1.996 1.996 0 0 0 0 2.828 1.996 1.996 0 0 0 2.828 0c.361-.361.586-.862.586-1.414zM7.221 7h14.57l-1.371 7.191A1 1 0 0 1 19.4 15H9.666a1.016 1.016 0 0 1-.626-.203.99.99 0 0 1-.379-.603zM1 2h3.18l.848 4.239C5.136 6.676 5.53 7 6 7h1.221l-.4-2H6a1 1 0 0 0-.971 1.239L6.7 14.586A3.009 3.009 0 0 0 9.694 17H19.4a2.97 2.97 0 0 0 1.995-.727 3.02 3.02 0 0 0 .985-1.683l1.602-8.402A1 1 0 0 0 23 5H6.82L5.98.804A1 1 0 0 0 5 0H1a1 1 0 0 0 0 2z"/></symbol><symbol id="star" viewBox="0 0 14 14"><path d="M6.049 1.427c.3-.921 1.603-.921 1.902 0l.845 2.6a1 1 0 0 0 .951.692h2.735c.969 0 1.371 1.24.588 1.809l-2.213 1.607a1 1 0 0 0-.363 1.118l.845 2.601c.3.921-.755 1.688-1.539 1.118l-2.212-1.607a1 1 0 0 0-1.176 0L4.2 12.972c-.784.57-1.838-.197-1.539-1.118l.845-2.6a1 1 0 0 0-.363-1.119L.93 6.528c-.783-.57-.38-1.81.588-1.81h2.735a1 1 0 0 0 .95-.69l.846-2.6Z"/></symbol><symbol id="heart" viewBox="0 0 32 32"><path opacity=".5" stroke="#f8f8f8" style="stroke:var(--color1,#f8f8f8)" stroke-linejoin="round" stroke-linecap="round" stroke-width="2.909" d="M27.787 6.147a7.345 7.345 0 0 0-5.187-2.15 7.33 7.33 0 0 0-5.187 2.15L16 7.56l-1.413-1.413a7.333 7.333 0 0 0-10.374 0 7.333 7.333 0 0 0 0 10.374L16 28.308l11.787-11.787a7.345 7.345 0 0 0 2.15-5.187 7.33 7.33 0 0 0-2.15-5.187v0z"/></symbol><symbol id="search" viewBox="0 0 32 32"><path d="M30.565 28.436 25 22.916a13.5 13.5 0 1 0-2.086 2.086l5.52 5.52a1.483 1.483 0 0 0 1.065.443 1.504 1.504 0 0 0 1.065-.443 1.503 1.503 0 0 0 0-2.085zM14.5 25.001a10.494 10.494 0 0 1-9.7-6.482A10.5 10.5 0 1 1 14.501 25z"/></symbol><symbol id="cook-hat" viewBox="0 0 37 32"><path fill="#9bb537" style="fill:var(--color1,#9bb537)" d="M7.325 12.723h23.133v17.735H7.325V12.723z"/><path fill="#9bb537" style="fill:var(--color1,#9bb537)" d="M16.578 11.373a8.289 8.289 0 1 1-16.578 0 8.289 8.289 0 1 1 16.578 0z"/><path fill="#9bb537" style="fill:var(--color1,#9bb537)" d="M26.988 8.289a8.289 8.289 0 1 1-16.578 0 8.289 8.289 0 1 1 16.578 0z"/><path fill="#9bb537" style="fill:var(--color1,#9bb537)" d="M37.398 11.373a8.289 8.289 0 1 1-16.578 0 8.289 8.289 0 1 1 16.578 0z"/><path fill="#f8f8f8" style="fill:var(--color2,#f8f8f8)" d="M7.325 29.301h23.133v2.036c0 .366-.324.663-.723.663H8.048c-.399 0-.723-.297-.723-.663v-2.036zM14.265 10.36c0-.611.432-1.107.964-1.107s.964.495.964 1.107v5.112c0 .611-.432 1.107-.964 1.107s-.964-.495-.964-1.107V10.36zM17.349 10.36c0-.611.604-1.107 1.349-1.107s1.349.495 1.349 1.107v5.112c0 .611-.604 1.107-1.349 1.107s-1.349-.495-1.349-1.107V10.36zM21.205 10.36c0-.611.432-1.107.964-1.107s.964.495.964 1.107v5.112c0 .611-.432 1.107-.964 1.107s-.964-.495-.964-1.107V10.36z"/><path fill="#050505" style="fill:var(--color3,#050505)" d="M28.184 3.131c.289-.03.581-.045.878-.045A8.333 8.333 0 0 1 37 8.832c-.289.03-.581.045-.878.045a8.333 8.333 0 0 1-7.938-5.746z"/></symbol></defs><symbol id="three-dots-loader" viewBox="0 0 128 32"><path d="M32 16c0 8.837-7.163 16-16 16S0 24.837 0 16 7.163 0 16 0s16 7.163 16 16zM73.6 16c0 5.302-4.298 9.6-9.6 9.6s-9.6-4.298-9.6-9.6 4.298-9.6 9.6-9.6 9.6 4.298 9.6 9.6zM128 16c0 8.837-7.163 16-16 16s-16-7.163-16-16 7.163-16 16-16 16 7.163 16 16z"/></symbol><symbol id="hearts-loader" viewBox="0 0 70 32"><path d="M15.131 28.51 3.597 20.361c-2.92-1.988-3.78-6.03-1.921-9.031 1.857-3 5.734-3.825 8.653-1.84l2.26 1.88 1.3-2.637c1.858-3.001 5.735-3.825 8.652-1.84 2.92 1.985 3.78 6.027 1.921 9.031l-7.218 12.135a1.448 1.448 0 0 1-2.114.45zM52.756 28.06l-7.22-12.136c-1.858-3.004-.998-7.046 1.922-9.031 2.917-1.985 6.794-1.161 8.653 1.84l1.3 2.637 2.26-1.88c2.92-1.985 6.796-1.16 8.654 1.84 1.859 3.002.999 7.044-1.921 9.032L54.871 28.51a1.449 1.449 0 0 1-2.114-.45z"/><path d="m33.704 28.917-11.505-12.49c-2.932-3.075-2.932-8.054 0-11.124 2.93-3.07 7.685-3.07 10.617 0L35 8.084l2.184-2.781c2.931-3.07 7.688-3.07 10.617 0 2.931 3.07 2.931 8.049 0 11.123l-11.504 12.49a1.733 1.733 0 0 1-2.594 0z"/></symbol><symbol id="icon-arrow-up" viewBox="0 0 32 32"><path d="M13.472 28.449v2.992a.35.35 0 1 1-.702 0v-2.992a.35.35 0 1 1 .702 0zM27.284 11.464c0 .212-.08.424-.242.585l-3.367 3.367a.83.83 0 0 1-1.17 0l-3.318-3.318v9.444a.35.35 0 1 1-.702 0V11.25a.352.352 0 0 1 .6-.249l3.918 3.918a.125.125 0 0 0 .177 0l3.367-3.367a.125.125 0 0 0 0-.177L16.086.915a.124.124 0 0 0-.093-.034c-.053-.001-.09.004-.12.034L5.412 11.375c-.063.064-.065.113 0 .177l3.367 3.367a.125.125 0 0 0 .177 0l3.918-3.918a.351.351 0 0 1 .6.249v14.1a.35.35 0 1 1-.702 0V12.098l-3.318 3.318a.83.83 0 0 1-1.17 0l-3.367-3.367a.846.846 0 0 1 0-1.17L15.377.419a.817.817 0 0 1 .616-.239.799.799 0 0 1 .59.239l10.461 10.46a.822.822 0 0 1 .243.585zM19.187 24.464v2.914a.35.35 0 1 1-.702 0v-2.914a.35.35 0 1 1 .702 0z"/><path d="M16.329 17.203v12.022a.35.35 0 1 1-.702 0V17.203a.35.35 0 1 1 .702 0z"/></symbol><symbol id="rate-star" viewBox="0 0 32 32"><path d="M15.357 1.219a.727.727 0 0 1 1.286 0l4.525 8.576a.727.727 0 0 0 .519.377l9.555 1.653c.576.1.805.804.398 1.223l-6.758 6.954a.728.728 0 0 0-.198.61l1.38 9.598a.727.727 0 0 1-1.041.756l-8.702-4.279a.731.731 0 0 0-.642 0l-8.702 4.279a.727.727 0 0 1-1.041-.756l1.38-9.598a.727.727 0 0 0-.198-.61L.36 13.048a.727.727 0 0 1 .398-1.224l9.555-1.653a.727.727 0 0 0 .519-.377l4.525-8.576z"/></symbol></svg>