<svg aria-hidden="true" style="position: absolute; width: 0; height: 0; overflow: hidden;" version="1.1" xmlns="http://www.w3.org/2000/svg" xmlns:xlink="http://www.w3.org/1999/xlink">
<defs>
<symbol id="icon-menu" viewBox="0 0 32 33">
<path d="M28 13.8333H4" stroke-width="2" stroke-linecap="round" stroke-linejoin="round"/>
<path d="M28 8.5H4" stroke-width="2" stroke-linecap="round" stroke-linejoin="round"/>
<path d="M28 19.1667H4" stroke-width="2" stroke-linecap="round" stroke-linejoin="round"/>
<path d="M28 24.5H4" stroke-width="2" stroke-linecap="round" stroke-linejoin="round"/>
</symbol>
<symbol id="icon-x" viewBox="0 0 32 32">
<path stroke-linejoin="round" stroke-linecap="round" stroke-miterlimit="4" stroke-width="2.6667" d="M24 8l-16 16"></path>
<path stroke-linejoin="round" stroke-linecap="round" stroke-miterlimit="4" stroke-width="2.6667" d="M8 8l16 16"></path>
</symbol>
<symbol id="icon-cart" viewBox="0 0 24 24">
<path d="M11 21c0-0.552-0.225-1.053-0.586-1.414s-0.862-0.586-1.414-0.586-1.053 0.225-1.414 0.586-0.586 0.862-0.586 1.414 0.225 1.053 0.586 1.414 0.862 0.586 1.414 0.586 1.053-0.225 1.414-0.586 0.586-0.862 0.586-1.414zM22 21c0-0.552-0.225-1.053-0.586-1.414s-0.862-0.586-1.414-0.586-1.053 0.225-1.414 0.586-0.586 0.862-0.586 1.414 0.225 1.053 0.586 1.414 0.862 0.586 1.414 0.586 1.053-0.225 1.414-0.586 0.586-0.862 0.586-1.414zM7.221 7h14.57l-1.371 7.191c-0.046 0.228-0.166 0.425-0.332 0.568-0.18 0.156-0.413 0.246-0.688 0.241h-9.734c-0.232 0.003-0.451-0.071-0.626-0.203-0.19-0.143-0.329-0.351-0.379-0.603zM1 2h3.18l0.848 4.239c0.108 0.437 0.502 0.761 0.972 0.761h1.221l-0.4-2h-0.821c-0.552 0-1 0.448-1 1 0 0.053 0.004 0.105 0.012 0.155 0.004 0.028 0.010 0.057 0.017 0.084l1.671 8.347c0.149 0.751 0.57 1.383 1.14 1.811 0.521 0.392 1.17 0.613 1.854 0.603h9.706c0.748 0.015 1.455-0.261 1.995-0.727 0.494-0.426 0.848-1.013 0.985-1.683l1.602-8.402c0.103-0.543-0.252-1.066-0.795-1.17-0.065-0.013-0.13-0.019-0.187-0.018h-16.18l-0.84-4.196c-0.094-0.462-0.497-0.804-0.98-0.804h-4c-0.552 0-1 0.448-1 1s0.448 1 1 1z"></path>
</symbol>
<symbol id="star" viewBox="0 0 14 14">
<path d="M6.04894 1.42705C6.3483 0.505742 7.6517 0.505741 7.95106 1.42705L8.79611 4.02786C8.92999 4.43989 9.31394 4.71885 9.74717 4.71885H12.4818C13.4505 4.71885 13.8533 5.95846 13.0696 6.52786L10.8572 8.13525C10.5067 8.3899 10.3601 8.84127 10.494 9.25329L11.339 11.8541C11.6384 12.7754 10.5839 13.5415 9.80017 12.9721L7.58779 11.3647C7.2373 11.1101 6.7627 11.1101 6.41222 11.3647L4.19983 12.9721C3.41612 13.5415 2.36164 12.7754 2.66099 11.8541L3.50604 9.25329C3.63992 8.84127 3.49326 8.3899 3.14277 8.13525L0.930391 6.52787C0.146677 5.95846 0.549452 4.71885 1.51818 4.71885H4.25283C4.68606 4.71885 5.07001 4.43989 5.20389 4.02786L6.04894 1.42705Z"/>
</symbol>
<symbol id="heart" viewBox="0 0 32 32">
<path opacity="0.5" stroke="#f8f8f8" style="stroke: var(--color1, #f8f8f8)" stroke-linejoin="round" stroke-linecap="round" stroke-miterlimit="4" stroke-width="2.9091" d="M27.787 6.147c-0.681-0.681-1.49-1.222-2.38-1.591s-1.844-0.559-2.807-0.559-1.917 0.19-2.807 0.559c-0.89 0.369-1.698 0.909-2.38 1.591l-1.413 1.413-1.413-1.413c-1.376-1.376-3.241-2.148-5.187-2.148s-3.811 0.773-5.187 2.148c-1.376 1.376-2.148 3.241-2.148 5.187s0.773 3.811 2.148 5.187l11.787 11.787 11.787-11.787c0.681-0.681 1.222-1.49 1.591-2.38s0.559-1.844 0.559-2.807c0-0.963-0.19-1.917-0.559-2.807s-0.909-1.699-1.591-2.38v0z"></path>
</symbol>
<symbol id="search" viewBox="0 0 32 32">
<path d="M30.565 28.436l-5.565-5.52c2.16-2.693 3.206-6.112 2.923-9.553s-1.874-6.643-4.445-8.947-5.928-3.536-9.379-3.441c-3.451 0.094-6.735 1.508-9.177 3.949s-3.855 5.725-3.949 9.177c-0.094 3.451 1.137 6.808 3.441 9.379s5.506 4.162 8.947 4.445c3.441 0.283 6.86-0.763 9.553-2.923l5.52 5.52c0.139 0.141 0.305 0.252 0.488 0.328s0.379 0.115 0.577 0.115c0.198 0 0.394-0.039 0.577-0.115s0.349-0.188 0.488-0.328c0.27-0.28 0.421-0.654 0.421-1.043s-0.151-0.763-0.421-1.042zM14.5 25.001c-2.077 0-4.107-0.616-5.833-1.77s-3.073-2.794-3.867-4.712c-0.795-1.919-1.003-4.030-0.598-6.067s1.405-3.908 2.874-5.376c1.468-1.468 3.339-2.468 5.376-2.874s4.148-0.197 6.067 0.598c1.919 0.795 3.559 2.141 4.712 3.867s1.77 3.757 1.77 5.833c0 2.785-1.106 5.455-3.075 7.425s-4.64 3.075-7.425 3.075z"></path>
</symbol>
<symbol id="cook-hat" viewBox="0 0 37 32">
<path fill="#9bb537" style="fill: var(--color1, #9bb537)" d="M7.325 12.723h23.133v17.735h-23.133v-17.735z"></path>
<path fill="#9bb537" style="fill: var(--color1, #9bb537)" d="M16.578 11.373c0 4.578-3.711 8.289-8.289 8.289s-8.289-3.711-8.289-8.289c0-4.578 3.711-8.289 8.289-8.289s8.289 3.711 8.289 8.289z"></path>
<path fill="#9bb537" style="fill: var(--color1, #9bb537)" d="M26.988 8.289c0 4.578-3.711 8.289-8.289 8.289s-8.289-3.711-8.289-8.289c0-4.578 3.711-8.289 8.289-8.289s8.289 3.711 8.289 8.289z"></path>
<path fill="#9bb537" style="fill: var(--color1, #9bb537)" d="M37.398 11.373c0 4.578-3.711 8.289-8.289 8.289s-8.289-3.711-8.289-8.289c0-4.578 3.711-8.289 8.289-8.289s8.289 3.711 8.289 8.289z"></path>
<path fill="#f8f8f8" style="fill: var(--color2, #f8f8f8)" d="M7.325 29.301h23.133v2.036c0 0.366-0.324 0.663-0.723 0.663h-21.687c-0.399 0-0.723-0.297-0.723-0.663v-2.036z"></path>
<path fill="#f8f8f8" style="fill: var(--color2, #f8f8f8)" d="M14.265 10.36c0-0.611 0.432-1.107 0.964-1.107s0.964 0.495 0.964 1.107v5.112c0 0.611-0.432 1.107-0.964 1.107s-0.964-0.495-0.964-1.107v-5.112z"></path>
<path fill="#f8f8f8" style="fill: var(--color2, #f8f8f8)" d="M17.349 10.36c0-0.611 0.604-1.107 1.349-1.107s1.349 0.495 1.349 1.107v5.112c0 0.611-0.604 1.107-1.349 1.107s-1.349-0.495-1.349-1.107v-5.112z"></path>
<path fill="#f8f8f8" style="fill: var(--color2, #f8f8f8)" d="M21.205 10.36c0-0.611 0.432-1.107 0.964-1.107s0.964 0.495 0.964 1.107v5.112c0 0.611-0.432 1.107-0.964 1.107s-0.964-0.495-0.964-1.107v-5.112z"></path>
<path fill="#050505" style="fill: var(--color3, #050505)" d="M28.184 3.131c0.289-0.030 0.581-0.045 0.878-0.045 3.714 0 6.861 2.413 7.938 5.746-0.289 0.030-0.581 0.045-0.878 0.045-3.714 0-6.861-2.413-7.938-5.746z"></path>
</symbol>
</defs>
<symbol id="three-dots-loader" viewBox="0 0 128 32">
<path d="M32 16c0 8.837-7.163 16-16 16s-16-7.163-16-16c0-8.837 7.163-16 16-16s16 7.163 16 16z"></path>
<path d="M73.6 16c0 5.302-4.298 9.6-9.6 9.6s-9.6-4.298-9.6-9.6c0-5.302 4.298-9.6 9.6-9.6s9.6 4.298 9.6 9.6z"></path>
<path d="M128 16c0 8.837-7.163 16-16 16s-16-7.163-16-16c0-8.837 7.163-16 16-16s16 7.163 16 16z"></path>
</symbol>
<symbol id="hearts-loader" viewBox="0 0 70 32">
<path d="M15.131 28.51l-11.534-8.149c-2.92-1.988-3.78-6.030-1.921-9.031 1.857-3 5.734-3.825 8.653-1.84l2.26 1.88 1.3-2.637c1.858-3.001 5.735-3.825 8.652-1.84 2.92 1.985 3.78 6.027 1.921 9.031l-7.218 12.135c-0.448 0.756-1.396 0.957-2.114 0.45z"></path>
<path d="M52.756 28.060l-7.22-12.136c-1.858-3.004-0.998-7.046 1.922-9.031 2.917-1.985 6.794-1.161 8.653 1.84l1.3 2.637 2.26-1.88c2.92-1.985 6.796-1.16 8.654 1.84 1.859 3.002 0.999 7.044-1.921 9.032l-11.533 8.148c-0.717 0.507-1.665 0.305-2.114-0.45z"></path>
<path d="M33.704 28.917l-11.505-12.49c-2.932-3.075-2.932-8.054 0-11.124 2.93-3.070 7.685-3.070 10.617 0l2.184 2.781 2.184-2.781c2.931-3.070 7.688-3.070 10.617 0 2.931 3.070 2.931 8.049 0 11.123l-11.504 12.49c-0.715 0.778-1.879 0.778-2.594 0z"></path>
</symbol>
<symbol id="icon-arrow-up" viewBox="0 0 32 32">
<path d="M13.472 28.449v2.992c0 0.194-0.157 0.351-0.351 0.351s-0.351-0.157-0.351-0.351v-2.992c0-0.194 0.157-0.351 0.351-0.351s0.351 0.157 0.351 0.351z"></path>
<path d="M27.284 11.464c0 0.212-0.080 0.424-0.242 0.585l-3.367 3.367c-0.323 0.322-0.848 0.322-1.17 0l-3.318-3.318v9.444c0 0.194-0.157 0.351-0.351 0.351s-0.351-0.157-0.351-0.351v-10.292c0-0.142 0.085-0.27 0.217-0.325s0.282-0.024 0.383 0.076l3.918 3.918c0.049 0.049 0.128 0.049 0.177-0l3.367-3.367c0.049-0.049 0.049-0.128 0-0.177l-10.461-10.46c-0.029-0.029-0.067-0.035-0.093-0.034-0.053-0.001-0.090 0.004-0.12 0.034l-10.461 10.46c-0.063 0.064-0.065 0.113 0 0.177l3.367 3.367c0.049 0.049 0.128 0.049 0.177 0l3.918-3.918c0.1-0.1 0.252-0.131 0.383-0.076s0.217 0.183 0.217 0.325v14.1c0 0.194-0.157 0.351-0.351 0.351s-0.351-0.157-0.351-0.351v-13.252l-3.318 3.318c-0.323 0.322-0.848 0.322-1.17 0l-3.367-3.367c-0.313-0.313-0.313-0.858 0-1.17l10.46-10.46c0.163-0.163 0.382-0.248 0.616-0.239 0.208-0.009 0.427 0.076 0.59 0.239l10.461 10.46c0.162 0.161 0.243 0.373 0.243 0.585z"></path>
<path d="M19.187 24.464v2.914c0 0.194-0.157 0.351-0.351 0.351s-0.351-0.157-0.351-0.351v-2.914c0-0.194 0.157-0.351 0.351-0.351s0.351 0.157 0.351 0.351z"></path>
<path d="M16.329 17.203v12.022c0 0.194-0.157 0.351-0.351 0.351s-0.351-0.157-0.351-0.351v-12.022c0-0.194 0.157-0.351 0.351-0.351s0.351 0.157 0.351 0.351z"></path>
</symbol>
<symbol id="rate-star" viewBox="0 0 32 32">
<path d="M15.357 1.219c0.273-0.517 1.014-0.517 1.286 0l4.525 8.576c0.105 0.199 0.297 0.339 0.519 0.377l9.555 1.653c0.576 0.1 0.805 0.804 0.398 1.223l-6.758 6.954c-0.157 0.162-0.23 0.387-0.198 0.61l1.38 9.598c0.083 0.579-0.516 1.014-1.041 0.756l-8.702-4.279c-0.202-0.099-0.439-0.099-0.642 0l-8.702 4.279c-0.525 0.258-1.124-0.177-1.041-0.756l1.38-9.598c0.032-0.223-0.041-0.449-0.198-0.61l-6.758-6.954c-0.408-0.419-0.179-1.124 0.398-1.224l9.555-1.653c0.222-0.038 0.414-0.178 0.519-0.377l4.525-8.576z"></path>
</symbol>
</svg>
